<?xml version="1.0" encoding="UTF-8" standalone="no"?>
<svg width="60px" height="24px" viewBox="0 0 60 24" version="1.1" xmlns="http://www.w3.org/2000/svg" xmlns:xlink="http://www.w3.org/1999/xlink">
    <!-- Generator: Sketch 41.2 (35397) - http://www.bohemiancoding.com/sketch -->
    <title>logo_02</title>
    <desc>Created with Sketch.</desc>
    <defs></defs>
    <g id="Website" stroke="none" stroke-width="1" fill="none" fill-rule="evenodd">
        <g id="Desktop-HD" transform="translate(-200.000000, -23.000000)" fill="#1D1D1B">
            <g id="logo_02" transform="translate(200.000000, 23.000000)">
                <g id="Calque_1">
                    <g id="Group">
                        <g id="Shape">
                            <path d="M13.0970149,17.5298507 L3.35820896,17.5298507 C3.44776119,18.6492537 3.80597015,19.5223881 4.45522388,20.1940299 C5.10447761,20.8432836 5.91044776,21.1791045 6.91791045,21.1791045 C7.70149254,21.1791045 8.35074627,21 8.86567164,20.619403 C9.35820896,20.238806 9.94029851,19.5671642 10.5895522,18.5597015 L13.2313433,20.0373134 C12.8283582,20.7313433 12.380597,21.3358209 11.9328358,21.8283582 C11.4850746,22.3208955 10.9925373,22.7238806 10.4776119,23.0597015 C9.96268657,23.3731343 9.40298507,23.619403 8.79850746,23.7537313 C8.19402985,23.9104478 7.54477612,23.9776119 6.82835821,23.9776119 C4.79104478,23.9776119 3.17910448,23.3283582 1.94776119,22.0298507 C0.71641791,20.7089552 0.111940299,18.9850746 0.111940299,16.8134328 C0.111940299,14.6641791 0.71641791,12.9179104 1.90298507,11.5970149 C3.1119403,10.2761194 4.70149254,9.62686567 6.67164179,9.62686567 C8.6641791,9.62686567 10.2537313,10.2537313 11.4179104,11.5298507 C12.5597015,12.7835821 13.141791,14.5522388 13.141791,16.7910448 L13.0970149,17.5298507 Z M9.89552239,14.9552239 C9.44776119,13.2761194 8.39552239,12.4477612 6.73880597,12.4477612 C6.35820896,12.4477612 6,12.5149254 5.6641791,12.6268657 C5.32835821,12.738806 5.01492537,12.9179104 4.74626866,13.119403 C4.47761194,13.3432836 4.23134328,13.5895522 4.05223881,13.9029851 C3.85074627,14.2164179 3.71641791,14.5522388 3.60447761,14.9552239 L9.89552239,14.9552239 Z"></path>
                            <polygon points="17.7313433 9.98507463 21.2462687 17.619403 24.738806 9.98507463 28.2761194 9.98507463 21.2462687 23.9552239 14.2164179 9.98507463"></polygon>
                            <path d="M29.2164179,16.6791045 C29.2164179,14.7089552 29.9104478,13.0522388 31.3208955,11.6641791 C32.7313433,10.2985075 34.4328358,9.60447761 36.4477612,9.60447761 C38.4626866,9.60447761 40.1865672,10.2985075 41.5970149,11.6865672 C42.9850746,13.0746269 43.6791045,14.7761194 43.6791045,16.7910448 C43.6791045,18.8283582 42.9850746,20.5298507 41.5746269,21.9179104 C40.1641791,23.2835821 38.4179104,23.9776119 36.380597,23.9776119 C34.3432836,23.9776119 32.641791,23.2835821 31.2537313,21.8955224 C29.8880597,20.4850746 29.2164179,18.761194 29.2164179,16.6791045 Z M32.4179104,16.7462687 C32.4179104,18.1119403 32.7761194,19.1865672 33.5149254,19.9701493 C34.2537313,20.7761194 35.238806,21.1791045 36.4477612,21.1791045 C37.6791045,21.1791045 38.6641791,20.7761194 39.380597,19.9925373 C40.119403,19.2089552 40.4776119,18.1567164 40.4776119,16.8358209 C40.4776119,15.5149254 40.119403,14.4626866 39.380597,13.6791045 C38.641791,12.8731343 37.6567164,12.4701493 36.4477612,12.4701493 C35.238806,12.4701493 34.2761194,12.8731343 33.5373134,13.6791045 C32.7761194,14.4402985 32.4179104,15.4701493 32.4179104,16.7462687 Z"></path>
                            <polygon points="50.1492537 0.0223880597 50.1492537 23.5746269 47.0149254 23.5746269 47.0149254 0.0223880597"></polygon>
                            <polygon points="57.358209 12.9179104 57.358209 23.5746269 54.2238806 23.5746269 54.2238806 12.9179104 52.880597 12.9179104 52.880597 9.98507463 54.2238806 9.98507463 54.2238806 5.01492537 57.358209 5.01492537 57.358209 9.98507463 59.7985075 9.98507463 59.7985075 12.9179104"></polygon>
                        </g>
                        <polygon id="Shape" points="9.69402985 2.75373134 4.05223881 4.20895522 3.58208955 7.29850746 9.20149254 5.84328358"></polygon>
                    </g>
                </g>
            </g>
        </g>
    </g>
</svg>